<svg width="21" height="22" viewBox="0 0 21 22" fill="none" xmlns="http://www.w3.org/2000/svg">
<path fill-rule="evenodd" clip-rule="evenodd" d="M7.815 6.58365C10.6956 2.88296 15.1946 0.500214 20.25 0.5C20.4489 0.499992 20.6397 0.579005 20.7803 0.719659C20.921 0.860312 21 1.05108 21 1.25C21 6.30564 18.6173 10.805 14.9165 13.6859C14.9715 14.0329 15 14.3883 15 14.75C15 18.4779 11.9779 21.5 8.25 21.5C7.83579 21.5 7.5 21.1642 7.5 20.75V16.6185C7.49075 16.6118 7.48163 16.6049 7.47264 16.5978C6.52063 15.8429 5.65799 14.9803 4.90312 14.0282C4.89577 14.019 4.88866 14.0096 4.88179 14H0.75C0.335786 14 0 13.6642 0 13.25C0 9.52208 3.02208 6.5 6.75 6.5C7.11198 6.5 7.46772 6.52856 7.815 6.58365ZM13.5 5.75C12.2574 5.75 11.25 6.75736 11.25 8C11.25 9.24264 12.2574 10.25 13.5 10.25C14.7426 10.25 15.75 9.24264 15.75 8C15.75 6.75736 14.7426 5.75 13.5 5.75Z" fill="white"/>
<path d="M3.76036 16.2418C4.09237 15.9942 4.16074 15.5242 3.91306 15.1922C3.66539 14.8602 3.19546 14.7918 2.86345 15.0395C1.58209 15.9954 0.75 17.5256 0.75 19.2499C0.75 19.5255 0.771294 19.7966 0.812456 20.0615C0.862589 20.3842 1.11574 20.6373 1.43842 20.6875C1.70336 20.7286 1.97445 20.7499 2.25 20.7499C3.97434 20.7499 5.50452 19.9178 6.4604 18.6365C6.70808 18.3045 6.63971 17.8345 6.3077 17.5869C5.97569 17.3392 5.50576 17.4075 5.25809 17.7396C4.57313 18.6577 3.48081 19.2499 2.25 19.2499C2.25 18.0191 2.84218 16.9268 3.76036 16.2418Z" fill="white"/>
</svg>
